<svg width="120" height="120" viewBox="0 0 120 120" fill="none" xmlns="http://www.w3.org/2000/svg">
<rect width="120" height="120" fill="#090909"/>
<path id="Subtract" fill-rule="evenodd" clip-rule="evenodd" d="M47.3151 79.7409C43.6714 79.0067 40.2453 77.8511 37.0367 76.274L31.0818 86.0629C35.0245 88.0207 39.1848 89.557 43.5626 90.6719C47.9405 91.7595 52.7126 92.3033 57.8789 92.3033C62.7462 92.3033 67.0968 91.8003 70.9308 90.7942C74.792 89.7881 78.055 88.3742 80.7197 86.5524C83.3845 84.7033 85.4102 82.4872 86.797 79.9041C88.211 77.2937 88.9179 74.3978 88.9179 71.2164C88.9179 68.5244 88.3741 66.0092 87.2865 63.6708C86.1988 61.3323 84.6217 59.3066 82.5551 57.5935C81.7481 56.9245 80.8684 56.3114 79.9161 55.7544L68.7751 62.8102C71.1171 63.5426 72.8825 64.6044 74.0714 65.9956C75.3494 67.464 75.9884 69.1363 75.9884 71.0125C75.9884 72.3992 75.6349 73.6908 74.928 74.8872C74.221 76.0837 73.1333 77.1169 71.665 77.9871C70.1966 78.8572 68.334 79.5506 66.0771 80.0672C63.8203 80.5566 61.1419 80.8014 58.0421 80.8014C54.5616 80.8014 50.9859 80.4479 47.3151 79.7409ZM46.3384 63.6105C45.7222 63.7579 45.0961 63.914 44.46 64.0787L44.5008 54.5345L68.3204 39.0354H34.5895V27.6965H85.6142V38.7361L46.3384 63.6105Z" fill="white"/>
</svg>
